<svg xmlns="http://www.w3.org/2000/svg" viewBox="0 0 64 64">
  <rect width="64" height="64" rx="14" fill="#0d9488"/>
  <circle cx="32" cy="32" r="22" fill="#ccfbf1" opacity="0.95"/>
  <path d="M22 35.5c-2.2 0-4-1.8-4-4s1.8-4 4-4h20c2.2 0 4 1.8 4 4s-1.8 4-4 4H22Z" fill="#0f766e"/>
  <path d="M25 25.5h14c3.6 0 6.5 2.9 6.5 6.5S42.6 38.5 39 38.5H25c-3.6 0-6.5-2.9-6.5-6.5s2.9-6.5 6.5-6.5Z" fill="#ffffff"/>
  <path d="M31.8 42.5v-4.1c-4.5-.5-7.6-2.7-7.6-6.1 0-3.1 2.5-5.1 6.4-5.8l1.2-.2v-4.8h3.4V26c2.2.2 4.2.9 5.9 2l-1.8 3c-1.4-.9-2.8-1.4-4.1-1.6v5.7l1.1.2c4.2.8 6.2 2.8 6.2 5.8 0 3.3-2.6 5.5-7.3 6v4.4h-3.4Zm0-8v-4.7c-1.9.4-2.8 1.1-2.8 2.2 0 1.2 1 2 2.8 2.5Zm3.4 4v4.9c2-.4 2.9-1.1 2.9-2.3 0-1.1-.8-1.9-2.9-2.6Z" fill="#0d9488"/>
</svg>
